HIERARCHY
ROOT hip
{
	OFFSET 0.000000 0.000000 0.000000 
	CHANNELS 6 Xposition Yposition Zposition Xrotation Zrotation Yrotation
	JOINT abdomen
	{
		OFFSET 0.000000 3.402643 0.000000 
		CHANNELS 3 Xrotation Zrotation Yrotation
		JOINT chest
		{
			OFFSET 0.000000 8.438565 -0.680529 
			CHANNELS 3 Xrotation Zrotation Yrotation
			JOINT neck
			{
				OFFSET 0.000000 10.207942 -0.272212 
				CHANNELS 3 Xrotation Zrotation Yrotation
				JOINT head
				{
					OFFSET 0.000000 3.130431 0.000000 
					CHANNELS 3 Xrotation Zrotation Yrotation
					End Site
					{
						OFFSET 0.000000 3.130435 0.000000 
					}
				}
			}
			JOINT lCollar
			{
				OFFSET 3.470700 6.669187 -0.816635 
				CHANNELS 3 Yrotation Zrotation Xrotation
				JOINT lShldr
				{
					OFFSET 3.198488 0.000000 0.000000 
					CHANNELS 3 Zrotation Yrotation Xrotation
					JOINT lForeArm
					{
						OFFSET 10.139888 0.000000 0.000000 
						CHANNELS 3 Yrotation Zrotation Xrotation
						JOINT lHand
						{
							OFFSET 8.370511 0.000000 0.000000 
							CHANNELS 3 Zrotation Yrotation Xrotation
							End Site
							{
								OFFSET 4.083176 0.000000 0.000000 
							}
						}
					}
				}
			}
			JOINT rCollar
			{
				OFFSET -3.470700 6.669187 -0.816635 
				CHANNELS 3 Yrotation Zrotation Xrotation
				JOINT rShldr
				{
					OFFSET -3.198488 0.000000 0.000000 
					CHANNELS 3 Zrotation Yrotation Xrotation
					JOINT rForeArm
					{
						OFFSET -10.139888 0.000000 0.000000 
						CHANNELS 3 Yrotation Zrotation Xrotation
						JOINT rHand
						{
							OFFSET -8.370511 0.000000 0.000000 
							CHANNELS 3 Zrotation Yrotation Xrotation
							End Site
							{
								OFFSET -4.083176 0.000000 0.000000 
							}
						}
					}
				}
			}
		}
	}
	JOINT lThigh
	{
		OFFSET 5.308129 -1.633274 1.361059 
		CHANNELS 3 Xrotation Zrotation Yrotation
		JOINT lShin
		{
			OFFSET -2.041588 -20.007561 0.000000 
			CHANNELS 3 Xrotation Zrotation Yrotation
			JOINT lFoot
			{
				OFFSET 0.000000 -19.190928 -1.224953 
				CHANNELS 3 Xrotation Yrotation Zrotation
				End Site
				{
					OFFSET 0.000000 -2.449906 4.627600 
				}
			}
		}
	}
	JOINT rThigh
	{
		OFFSET -5.308129 -1.633274 1.361059 
		CHANNELS 3 Xrotation Zrotation Yrotation
		JOINT rShin
		{
			OFFSET 2.041588 -20.007561 0.000000 
			CHANNELS 3 Xrotation Zrotation Yrotation
			JOINT rFoot
			{
				OFFSET 0.000000 -19.190928 -1.224953 
				CHANNELS 3 Xrotation Yrotation Zrotation
				End Site
				{
					OFFSET 0.000000 -2.449906 4.627600 
				}
			}
		}
	}
}
MOTION
Frames: 11
Frame Time: 0.011111
-95.341179 51.192894 6.633162 4.470967 -1.466821 85.048515 22.248590 -10.364247 0.905730 -17.675968 2.470848 1.263722 -19.082994 2.664594 -0.332422 34.256001 1.181129 1.038618 3.134826 -1.098498 2.090950 -70.982056 -31.163885 37.296879 -48.630379 7.368091 7.599351 8.524705 12.647240 -57.102921 -2.361975 3.467811 1.820220 71.438721 23.770201 35.731930 51.398872 -8.016419 8.730660 -8.534408 -12.637552 42.025253 1.687591 3.161471 3.881110 26.245707 -5.521652 -4.348653 -33.732193 2.887910 0.693112 -0.987097 -9.691561 -10.829508 26.287060 5.519278 4.322514 -30.627111 11.358572 8.418590 
-95.315659 51.180454 6.675912 4.430705 -1.434922 85.188408 22.406315 -10.215805 0.912217 -17.754097 2.335957 1.249189 -19.477985 2.892436 -0.431865 34.485886 0.744005 0.781912 3.134826 -1.098498 2.090950 -70.833389 -30.923582 37.306656 -49.015469 7.463801 7.753254 8.524705 12.647240 -56.702522 -2.361975 3.467811 1.820220 71.461090 23.906588 35.957088 51.398872 -8.016419 8.730660 -8.534408 -12.637552 42.044781 1.559187 3.410912 4.801504 26.528313 -5.502028 -4.389253 -33.235394 2.404216 0.294712 -0.840418 -9.547602 -10.695372 26.229216 5.505262 4.333699 -30.756140 11.188834 8.336508 
-95.294609 51.180138 6.720575 4.412750 -1.460223 85.318451 22.580204 -10.022800 0.767390 -18.115656 2.373275 1.185725 -19.605526 2.922961 -0.408008 34.599995 0.327521 0.708884 3.134826 -1.098498 2.090950 -70.910835 -30.296227 37.026699 -49.568165 7.600914 7.983811 8.524705 12.647240 -56.448620 -2.361975 3.467811 1.820220 71.252136 23.841524 36.478783 51.388165 -8.012384 8.721428 -8.534408 -12.637552 42.113140 1.239076 3.465507 4.542764 27.119532 -5.482066 -4.467372 -33.679790 2.303842 0.323520 -0.596578 -9.376217 -10.432595 25.858423 5.515082 4.283139 -30.796257 10.922256 8.169888 
-95.263977 51.184605 6.773852 4.078605 -1.453176 85.285133 22.659544 -9.504659 0.879707 -18.115593 2.275697 1.165810 -19.586288 2.955187 -0.345864 34.178101 0.002247 0.731224 3.134826 -1.098498 2.090950 -70.977211 -30.196754 36.677517 -49.723930 7.633842 8.043965 8.524705 12.647240 -56.233776 -2.361975 3.467811 1.820220 71.139717 24.175373 36.875984 51.230869 -7.979010 8.660648 -8.534408 -12.637552 42.035015 0.955429 3.969420 5.082946 27.771488 -5.452647 -4.547574 -33.747131 1.907620 0.090520 -0.245429 -8.928344 -10.497122 25.471786 5.557428 4.209232 -30.700434 10.978353 8.196597 
-95.233994 51.181416 6.822982 3.552262 -1.345755 85.216072 22.852911 -8.832939 1.231613 -18.164310 2.061757 1.192508 -19.645475 3.006015 -0.263449 33.981213 -0.236698 0.835470 3.134826 -1.098498 2.090950 -70.861191 -30.023975 36.805588 -50.005539 7.697761 8.152775 8.524705 12.647240 -55.804089 -2.361975 3.467811 1.820220 71.115021 24.439472 37.250317 51.188923 -7.969413 8.639744 -8.534408 -12.637552 41.908062 0.672813 4.662193 5.476817 28.534615 -5.404088 -4.653073 -33.728535 1.614805 -0.076704 0.330099 -8.272764 -10.614824 24.987663 5.577809 4.159850 -30.541115 11.117291 8.263658 
-95.206238 51.155888 6.870517 3.171154 -1.186508 85.238235 23.157549 -8.331895 1.443566 -18.222786 1.857877 1.199744 -19.782818 3.043561 -0.222070 33.814434 -0.471078 0.839479 3.134826 -1.098498 2.090950 -70.684677 -29.833256 37.019512 -50.403294 7.793096 8.319579 8.524705 12.647240 -54.993542 -2.361975 3.467811 1.820220 71.039391 24.626232 38.039207 51.314766 -7.998095 8.699807 -8.534408 -12.637552 41.663925 0.341169 5.155552 5.411914 29.423956 -5.365373 -4.772707 -33.868973 1.491819 -0.122012 0.926002 -7.748336 -10.617774 24.486458 5.582715 4.096704 -30.464413 11.145686 8.284306 
-95.171776 51.114738 6.921241 2.755015 -1.066987 85.233612 23.448790 -7.747259 1.657838 -18.290941 1.556565 1.207300 -19.939323 3.052921 -0.202818 33.618778 -0.530869 0.868398 3.134826 -1.098498 2.090950 -70.541580 -29.739334 36.785248 -50.570084 7.827155 8.380527 8.524705 12.647240 -54.661510 -2.361975 3.467811 1.820220 71.094063 24.898851 38.054428 51.188923 -7.969413 8.639744 -8.534408 -12.637552 41.751808 -0.039338 5.706592 5.457097 30.354645 -5.307308 -4.889729 -33.902569 1.333347 -0.208706 1.423671 -7.212046 -10.713100 24.081676 5.603065 4.044453 -30.388023 11.177688 8.295912 
-95.139877 51.087936 6.964629 2.590143 -1.024549 85.212967 23.681229 -7.568639 1.878788 -18.476480 1.521496 1.241403 -20.172363 2.949384 -0.240052 33.648930 -0.533769 0.757435 3.134826 -1.098498 2.090950 -70.228760 -29.356745 37.790680 -51.187855 7.963291 8.630855 8.524705 12.647240 -53.255260 -2.361975 3.467811 1.820220 70.924164 24.813601 38.338745 51.619781 -8.065878 8.820236 -8.534408 -12.637552 41.937359 -0.498014 6.001775 5.740840 31.303726 -5.250232 -4.998358 -33.826363 1.261006 -0.289278 1.726625 -6.967169 -10.770517 23.696808 5.621870 3.994437 -30.292356 11.179434 8.282521 
-95.118820 51.081238 7.000360 2.570302 -0.998629 85.326271 23.910152 -7.461212 1.934695 -18.661957 1.427907 1.246769 -20.339155 2.958183 -0.335418 33.650497 -0.610453 0.539851 3.134826 -1.098498 2.090950 -70.409645 -29.391083 37.015652 -51.103771 7.944589 8.601570 8.524705 12.647240 -53.714241 -2.361975 3.467811 1.820220 70.834930 24.805229 38.736729 52.080814 -8.158036 9.016943 -8.534408 -12.637552 42.171734 -1.074190 6.177094 6.202837 32.390480 -5.181825 -5.144426 -33.511997 1.342973 -0.289156 2.039671 -6.883243 -10.860325 23.273407 5.631067 3.939040 -30.034039 11.262378 8.316559 
-95.104149 51.086021 7.037048 2.110490 -0.923081 85.507469 24.266621 -6.767878 2.038890 -18.896221 1.295902 1.203164 -20.200069 2.846568 -0.266257 33.152016 -0.683654 0.592162 3.134826 -1.098498 2.090950 -70.155212 -28.958094 37.818180 -51.659580 8.062981 8.823448 8.524705 12.647240 -52.591198 -2.361975 3.467811 1.820220 70.801987 25.157352 38.954655 51.808205 -8.103750 8.903339 -8.534408 -12.637552 42.064308 -1.767357 6.844156 6.650218 33.634388 -5.104385 -5.311580 -33.221920 1.223577 -0.419568 2.565951 -6.294729 -11.059930 22.796713 5.650892 3.880291 -29.858042 11.298576 8.327967 
-95.084679 51.091125 7.076288 1.563389 -0.907553 85.659111 24.565964 -5.992310 2.172537 -19.003595 1.239113 1.162341 -20.069324 2.656270 -0.127924 32.388855 -0.601698 0.799893 3.134826 -1.098498 2.090950 -70.160202 -28.811415 38.043152 -51.983730 8.124988 8.959515 8.524705 12.647240 -52.073624 -2.361975 3.467811 1.820220 70.689308 25.481409 39.068680 51.681007 -8.070918 8.844731 -8.534408 -12.637552 41.849472 -2.585526 7.588424 6.856738 34.995850 -5.011418 -5.501877 -33.197880 0.908179 -0.601772 3.094944 -5.575193 -10.975080 22.239283 5.670359 3.794920 -29.866842 11.046178 8.158870 
